<?xml version="1.0" standalone="no"?>
<!DOCTYPE svg PUBLIC "-//W3C//DTD SVG 20010904//EN"
 "http://www.w3.org/TR/2001/REC-SVG-20010904/DTD/svg10.dtd">
<svg version="1.0" xmlns="http://www.w3.org/2000/svg"
 width="466.000000pt" height="466.000000pt" viewBox="0 0 466.000000 466.000000"
 preserveAspectRatio="xMidYMid meet">
<metadata>
Created by potrace 1.14, written by Peter Selinger 2001-2017
</metadata>
<g transform="translate(0.000000,466.000000) scale(0.100000,-0.100000)"
fill="#000000" stroke="none">
<path d="M260 4350 c0 -5 -9 -10 -20 -10 -11 0 -20 -4 -20 -10 0 -5 -9 -10
-20 -10 -13 0 -20 -7 -20 -20 0 -11 -4 -20 -10 -20 -7 0 -10 -568 -10 -1685
l0 -1685 65 -65 c35 -36 69 -65 75 -65 6 0 38 -27 70 -60 32 -33 64 -60 70
-60 7 0 25 -13 40 -30 15 -16 33 -30 40 -30 7 0 25 -13 40 -30 15 -16 34 -30
42 -30 7 0 20 -9 28 -20 8 -11 21 -20 30 -20 9 0 22 -9 30 -20 8 -11 21 -20
30 -20 9 0 22 -9 30 -20 8 -11 22 -20 32 -20 10 0 18 -4 18 -10 0 -5 9 -10 20
-10 11 0 20 -4 20 -10 0 -5 9 -10 20 -10 11 0 20 -4 20 -10 0 -5 8 -10 18 -10
10 0 24 -9 32 -20 8 -11 22 -20 32 -20 10 0 18 -4 18 -10 0 -5 14 -10 30 -10
17 0 30 -4 30 -10 0 -5 9 -10 20 -10 11 0 20 -4 20 -10 0 -5 9 -10 20 -10 11
0 20 -4 20 -10 0 -5 9 -10 20 -10 11 0 20 -4 20 -10 0 -5 14 -10 30 -10 17 0
30 -4 30 -10 0 -5 9 -10 20 -10 11 0 20 -4 20 -10 0 -5 14 -10 30 -10 17 0 30
-4 30 -10 0 -5 14 -10 30 -10 17 0 30 -4 30 -10 0 -5 14 -10 30 -10 17 0 30
-4 30 -10 0 -5 18 -10 40 -10 22 0 40 -4 40 -10 0 -5 14 -10 30 -10 17 0 30
-4 30 -10 0 -5 23 -10 50 -10 28 0 50 -4 50 -10 0 -5 18 -10 40 -10 22 0 40
-4 40 -10 0 -6 27 -10 60 -10 33 0 60 -4 60 -10 0 -6 37 -10 90 -10 53 0 90
-4 90 -10 0 -6 93 -10 260 -10 167 0 260 4 260 10 0 6 33 10 80 10 47 0 80 4
80 10 0 6 27 10 60 10 33 0 60 4 60 10 0 6 23 10 50 10 28 0 50 5 50 10 0 6
23 10 50 10 28 0 50 5 50 10 0 6 14 10 30 10 17 0 30 5 30 10 0 6 18 10 40 10
22 0 40 5 40 10 0 6 14 10 30 10 17 0 30 5 30 10 0 6 14 10 30 10 17 0 30 5
30 10 0 6 14 10 30 10 17 0 30 5 30 10 0 6 9 10 20 10 11 0 20 5 20 10 0 6 14
10 30 10 17 0 30 5 30 10 0 6 9 10 20 10 11 0 20 5 20 10 0 6 9 10 20 10 11 0
20 5 20 10 0 6 14 10 30 10 17 0 30 5 30 10 0 6 9 10 20 10 11 0 20 5 20 10 0
6 9 10 20 10 11 0 20 5 20 10 0 6 8 10 18 10 10 0 24 9 32 20 8 11 22 20 32
20 10 0 18 5 18 10 0 6 8 10 18 10 10 0 24 9 32 20 8 11 22 20 32 20 10 0 18
5 18 10 0 6 8 10 18 10 10 0 24 9 32 20 8 11 21 20 30 20 9 0 22 9 30 20 8 11
21 20 28 20 8 0 27 13 42 30 15 16 33 30 40 30 7 0 25 14 40 30 15 17 33 30
40 30 6 0 38 27 70 60 32 33 64 60 70 60 5 0 48 38 95 85 l85 85 0 1665 c0
1103 -3 1665 -10 1665 -5 0 -10 9 -10 20 0 13 -7 20 -20 20 -11 0 -20 5 -20
10 0 6 -9 10 -20 10 -11 0 -20 5 -20 10 0 6 -40 10 -100 10 -60 0 -100 -4
-100 -10 0 -6 -50 -10 -130 -10 -80 0 -130 -4 -130 -10 0 -6 -57 -10 -150 -10
-93 0 -150 -4 -150 -10 0 -6 -70 -10 -190 -10 -120 0 -190 -4 -190 -10 0 -6
-100 -10 -280 -10 -180 0 -280 -4 -280 -10 0 -6 -123 -10 -350 -10 -227 0
-350 4 -350 10 0 6 -97 10 -270 10 -173 0 -270 4 -270 10 0 6 -70 10 -190 10
-120 0 -190 4 -190 10 0 6 -60 10 -160 10 -100 0 -160 4 -160 10 0 6 -53 10
-140 10 -87 0 -140 4 -140 10 0 6 -47 10 -120 10 -73 0 -120 -4 -120 -10z
m3100 -1080 c0 -5 18 -10 40 -10 22 0 40 -4 40 -10 0 -5 9 -10 20 -10 11 0 20
-4 20 -10 0 -5 8 -10 18 -10 10 0 24 -9 32 -20 8 -11 20 -20 28 -20 7 0 28
-16 47 -35 19 -19 35 -40 35 -47 0 -8 9 -20 20 -28 11 -8 20 -22 20 -32 0 -10
5 -18 10 -18 6 0 10 -9 10 -20 0 -11 5 -20 10 -20 6 0 10 -18 10 -40 0 -22 5
-40 10 -40 6 0 10 -33 10 -80 0 -47 -4 -80 -10 -80 -5 0 -10 -18 -10 -40 0
-22 -4 -40 -10 -40 -5 0 -10 -9 -10 -20 0 -11 -4 -20 -10 -20 -5 0 -10 -8 -10
-18 0 -10 -9 -24 -20 -32 -11 -8 -20 -20 -20 -28 0 -17 -65 -82 -82 -82 -8 0
-20 -9 -28 -20 -8 -11 -22 -20 -32 -20 -10 0 -18 -4 -18 -10 0 -5 -9 -10 -20
-10 -11 0 -20 -4 -20 -10 0 -5 -22 -10 -50 -10 -27 0 -50 -4 -50 -10 0 -6 -27
-10 -60 -10 -33 0 -60 4 -60 10 0 6 -18 10 -40 10 -22 0 -40 5 -40 10 0 6 -13
10 -30 10 -16 0 -30 5 -30 10 0 6 -8 10 -18 10 -10 0 -24 9 -32 20 -8 11 -20
20 -28 20 -17 0 -82 65 -82 82 0 8 -9 20 -20 28 -11 8 -20 22 -20 32 0 10 -4
18 -10 18 -5 0 -10 14 -10 30 0 17 -4 30 -10 30 -5 0 -10 18 -10 40 0 22 -4
40 -10 40 -6 0 -10 30 -10 70 0 40 4 70 10 70 6 0 10 18 10 40 0 22 5 40 10
40 6 0 10 9 10 20 0 11 5 20 10 20 6 0 10 8 10 18 0 10 9 24 20 32 11 8 20 20
20 28 0 7 16 28 35 47 19 19 40 35 47 35 8 0 20 9 28 20 8 11 22 20 32 20 10
0 18 5 18 10 0 6 9 10 20 10 11 0 20 5 20 10 0 6 18 10 40 10 22 0 40 5 40 10
0 6 33 10 80 10 47 0 80 -4 80 -10z m-1660 -20 c0 -5 18 -10 40 -10 22 0 40
-4 40 -10 0 -5 9 -10 20 -10 11 0 20 -4 20 -10 0 -5 9 -10 20 -10 11 0 20 -4
20 -10 0 -5 7 -10 15 -10 20 0 125 -105 125 -125 0 -8 5 -15 10 -15 6 0 10 -9
10 -20 0 -11 5 -20 10 -20 6 0 10 -9 10 -20 0 -11 5 -20 10 -20 6 0 10 -13 10
-30 0 -16 5 -30 10 -30 6 0 10 -40 10 -100 0 -60 -4 -100 -10 -100 -5 0 -10
-18 -10 -40 0 -22 -4 -40 -10 -40 -5 0 -10 -8 -10 -18 0 -10 -9 -24 -20 -32
-11 -8 -20 -20 -20 -27 0 -8 -25 -38 -55 -68 -30 -30 -60 -55 -68 -55 -7 0
-19 -9 -27 -20 -8 -11 -22 -20 -32 -20 -10 0 -18 -4 -18 -10 0 -5 -18 -10 -40
-10 -22 0 -40 -4 -40 -10 0 -6 -40 -10 -100 -10 -60 0 -100 4 -100 10 0 6 -13
10 -30 10 -16 0 -30 5 -30 10 0 6 -9 10 -20 10 -11 0 -20 5 -20 10 0 6 -9 10
-20 10 -11 0 -20 5 -20 10 0 6 -7 10 -15 10 -20 0 -125 105 -125 125 0 8 -4
15 -10 15 -5 0 -10 9 -10 20 0 11 -4 20 -10 20 -5 0 -10 9 -10 20 0 11 -4 20
-10 20 -5 0 -10 18 -10 40 0 22 -4 40 -10 40 -6 0 -10 33 -10 80 0 47 4 80 10
80 6 0 10 18 10 40 0 22 5 40 10 40 6 0 10 9 10 20 0 11 5 20 10 20 6 0 10 8
10 18 0 10 9 24 20 32 11 8 20 20 20 28 0 7 16 28 35 47 19 19 40 35 47 35 8
0 20 9 28 20 8 11 22 20 32 20 10 0 18 5 18 10 0 6 9 10 20 10 11 0 20 5 20
10 0 6 18 10 40 10 22 0 40 5 40 10 0 6 33 10 80 10 47 0 80 -4 80 -10z"/>
<path d="M3240 3090 c0 -5 -13 -10 -30 -10 -16 0 -30 -4 -30 -10 0 -5 -8 -10
-18 -10 -10 0 -24 -9 -32 -20 -8 -11 -22 -20 -32 -20 -11 0 -18 -7 -18 -18 0
-10 -9 -24 -20 -32 -11 -8 -20 -22 -20 -32 0 -10 -4 -18 -10 -18 -6 0 -10 -40
-10 -100 0 -60 4 -100 10 -100 6 0 10 -7 10 -15 0 -9 25 -40 55 -70 30 -30 61
-55 70 -55 8 0 15 -4 15 -10 0 -5 18 -10 40 -10 22 0 40 -4 40 -10 0 -5 9 -10
20 -10 11 0 20 5 20 10 0 6 18 10 40 10 22 0 40 5 40 10 0 6 9 10 20 10 11 0
20 5 20 10 0 6 7 10 15 10 9 0 31 16 50 35 19 19 35 41 35 50 0 8 5 15 10 15
6 0 10 14 10 30 0 17 5 30 10 30 6 0 10 27 10 60 0 64 -7 72 -30 40 -8 -11
-22 -20 -32 -20 -10 0 -18 -4 -18 -10 0 -5 -13 -10 -30 -10 -16 0 -30 5 -30
10 0 6 -7 10 -16 10 -20 0 -44 24 -44 44 0 9 -4 16 -10 16 -5 0 -10 14 -10 30
0 17 5 30 10 30 6 0 10 9 10 20 0 13 7 20 20 20 11 0 20 5 20 10 0 6 9 10 20
10 13 0 20 7 20 20 0 13 -7 20 -20 20 -11 0 -20 5 -20 10 0 6 -18 10 -40 10
-22 0 -40 5 -40 10 0 6 -18 10 -40 10 -22 0 -40 -4 -40 -10z"/>
<path d="M1600 3070 c0 -5 -13 -10 -28 -10 -16 0 -34 -8 -42 -20 -8 -11 -20
-20 -28 -20 -17 0 -42 -25 -42 -42 0 -8 -9 -20 -20 -28 -11 -8 -20 -22 -20
-32 0 -10 -4 -18 -10 -18 -6 0 -10 -37 -10 -90 0 -53 4 -90 10 -90 6 0 10 -9
10 -20 0 -11 5 -20 10 -20 6 0 10 -7 10 -15 0 -20 65 -85 85 -85 8 0 15 -4 15
-10 0 -5 9 -10 20 -10 11 0 20 -4 20 -10 0 -6 37 -10 90 -10 53 0 90 4 90 10
0 6 9 10 20 10 11 0 20 5 20 10 0 6 7 10 15 10 20 0 85 65 85 85 0 8 5 15 10
15 6 0 10 14 10 30 0 17 5 30 10 30 6 0 10 27 10 60 0 33 -4 60 -10 60 -5 0
-10 -7 -10 -16 0 -20 -24 -44 -44 -44 -9 0 -16 -4 -16 -10 0 -5 -16 -10 -35
-10 -38 0 -85 36 -85 65 0 8 -4 15 -10 15 -5 0 -10 9 -10 20 0 11 5 20 10 20
6 0 10 7 10 15 0 29 47 65 85 65 19 0 35 2 35 5 0 13 -50 55 -65 55 -8 0 -15
5 -15 10 0 6 -9 10 -20 10 -11 0 -20 5 -20 10 0 6 -30 10 -70 10 -40 0 -70 -4
-70 -10z"/>
</g>
</svg>
